<mxfile host="app.diagrams.net" modified="2021-07-10T10:17:26.663Z" agent="5.0 (Windows NT 6.3; Win64; x64) AppleWebKit/537.36 (KHTML, like Gecko) Chrome/91.0.4472.124 Safari/537.36" etag="dsCRvQ9Z9KJ8STKqP1PG" version="14.8.5" type="github">
  <diagram id="Nmb4THc1gGD-KGNbrdNZ" name="Page-1">
    <mxGraphModel dx="1422" dy="794" grid="1" gridSize="10" guides="1" tooltips="1" connect="1" arrows="1" fold="1" page="1" pageScale="1" pageWidth="827" pageHeight="1169" math="0" shadow="0">
      <root>
        <mxCell id="0" />
        <mxCell id="1" parent="0" />
        <mxCell id="lUZX4r2CdYcEZuBRouMM-11" value="Щит" style="swimlane;fontStyle=0;childLayout=stackLayout;horizontal=1;startSize=26;horizontalStack=0;resizeParent=1;resizeParentMax=0;resizeLast=0;collapsible=1;marginBottom=0;fillColor=#e3c800;strokeColor=#B09500;fontColor=#000000;" vertex="1" parent="1">
          <mxGeometry y="510" width="160" height="104" as="geometry" />
        </mxCell>
        <mxCell id="lUZX4r2CdYcEZuBRouMM-12" value="Размер" style="text;strokeColor=#B20000;fillColor=#e51400;align=left;verticalAlign=top;spacingLeft=4;spacingRight=4;overflow=hidden;rotatable=0;points=[[0,0.5],[1,0.5]];portConstraint=eastwest;fontColor=#ffffff;" vertex="1" parent="lUZX4r2CdYcEZuBRouMM-11">
          <mxGeometry y="26" width="160" height="26" as="geometry" />
        </mxCell>
        <mxCell id="lUZX4r2CdYcEZuBRouMM-13" value="Из чего сделан(материал)" style="text;strokeColor=#B20000;fillColor=#e51400;align=left;verticalAlign=top;spacingLeft=4;spacingRight=4;overflow=hidden;rotatable=0;points=[[0,0.5],[1,0.5]];portConstraint=eastwest;fontColor=#ffffff;" vertex="1" parent="lUZX4r2CdYcEZuBRouMM-11">
          <mxGeometry y="52" width="160" height="26" as="geometry" />
        </mxCell>
        <mxCell id="lUZX4r2CdYcEZuBRouMM-14" value="Использование" style="text;strokeColor=#B20000;fillColor=#e51400;align=left;verticalAlign=top;spacingLeft=4;spacingRight=4;overflow=hidden;rotatable=0;points=[[0,0.5],[1,0.5]];portConstraint=eastwest;fontColor=#ffffff;" vertex="1" parent="lUZX4r2CdYcEZuBRouMM-11">
          <mxGeometry y="78" width="160" height="26" as="geometry" />
        </mxCell>
        <mxCell id="lUZX4r2CdYcEZuBRouMM-15" value="Мечник" style="swimlane;fontStyle=0;childLayout=stackLayout;horizontal=1;startSize=26;horizontalStack=0;resizeParent=1;resizeParentMax=0;resizeLast=0;collapsible=1;marginBottom=0;fillColor=#a0522d;strokeColor=#6D1F00;fontColor=#ffffff;" vertex="1" parent="1">
          <mxGeometry x="144" y="300" width="140" height="104" as="geometry" />
        </mxCell>
        <mxCell id="lUZX4r2CdYcEZuBRouMM-16" value="Рост" style="text;strokeColor=#3A5431;fillColor=#6d8764;align=left;verticalAlign=top;spacingLeft=4;spacingRight=4;overflow=hidden;rotatable=0;points=[[0,0.5],[1,0.5]];portConstraint=eastwest;fontColor=#ffffff;" vertex="1" parent="lUZX4r2CdYcEZuBRouMM-15">
          <mxGeometry y="26" width="140" height="26" as="geometry" />
        </mxCell>
        <mxCell id="lUZX4r2CdYcEZuBRouMM-17" value="Вес" style="text;strokeColor=#3A5431;fillColor=#6d8764;align=left;verticalAlign=top;spacingLeft=4;spacingRight=4;overflow=hidden;rotatable=0;points=[[0,0.5],[1,0.5]];portConstraint=eastwest;fontColor=#ffffff;" vertex="1" parent="lUZX4r2CdYcEZuBRouMM-15">
          <mxGeometry y="52" width="140" height="26" as="geometry" />
        </mxCell>
        <mxCell id="lUZX4r2CdYcEZuBRouMM-18" value="Сила" style="text;strokeColor=#3A5431;fillColor=#6d8764;align=left;verticalAlign=top;spacingLeft=4;spacingRight=4;overflow=hidden;rotatable=0;points=[[0,0.5],[1,0.5]];portConstraint=eastwest;fontColor=#ffffff;" vertex="1" parent="lUZX4r2CdYcEZuBRouMM-15">
          <mxGeometry y="78" width="140" height="26" as="geometry" />
        </mxCell>
        <mxCell id="lUZX4r2CdYcEZuBRouMM-19" value="Ловкость" style="text;strokeColor=#3A5431;fillColor=#6d8764;align=left;verticalAlign=top;spacingLeft=4;spacingRight=4;overflow=hidden;rotatable=0;points=[[0,0.5],[1,0.5]];portConstraint=eastwest;fontColor=#ffffff;" vertex="1" parent="1">
          <mxGeometry x="144" y="404" width="140" height="26" as="geometry" />
        </mxCell>
        <mxCell id="lUZX4r2CdYcEZuBRouMM-20" value="Корпус" style="text;strokeColor=#3A5431;fillColor=#6d8764;align=left;verticalAlign=top;spacingLeft=4;spacingRight=4;overflow=hidden;rotatable=0;points=[[0,0.5],[1,0.5]];portConstraint=eastwest;fontColor=#ffffff;" vertex="1" parent="1">
          <mxGeometry x="144" y="430" width="140" height="26" as="geometry" />
        </mxCell>
        <mxCell id="lUZX4r2CdYcEZuBRouMM-21" value="Лучник" style="swimlane;fontStyle=0;childLayout=stackLayout;horizontal=1;startSize=26;horizontalStack=0;resizeParent=1;resizeParentMax=0;resizeLast=0;collapsible=1;marginBottom=0;fillColor=#a0522d;strokeColor=#6D1F00;fontColor=#ffffff;" vertex="1" parent="1">
          <mxGeometry x="454" y="300" width="140" height="104" as="geometry" />
        </mxCell>
        <mxCell id="lUZX4r2CdYcEZuBRouMM-22" value="Меткость" style="text;strokeColor=#3A5431;fillColor=#6d8764;align=left;verticalAlign=top;spacingLeft=4;spacingRight=4;overflow=hidden;rotatable=0;points=[[0,0.5],[1,0.5]];portConstraint=eastwest;fontColor=#ffffff;" vertex="1" parent="lUZX4r2CdYcEZuBRouMM-21">
          <mxGeometry y="26" width="140" height="26" as="geometry" />
        </mxCell>
        <mxCell id="lUZX4r2CdYcEZuBRouMM-23" value="Скрытность" style="text;strokeColor=#3A5431;fillColor=#6d8764;align=left;verticalAlign=top;spacingLeft=4;spacingRight=4;overflow=hidden;rotatable=0;points=[[0,0.5],[1,0.5]];portConstraint=eastwest;fontColor=#ffffff;" vertex="1" parent="lUZX4r2CdYcEZuBRouMM-21">
          <mxGeometry y="52" width="140" height="26" as="geometry" />
        </mxCell>
        <mxCell id="lUZX4r2CdYcEZuBRouMM-24" value="Умения" style="text;strokeColor=#3A5431;fillColor=#6d8764;align=left;verticalAlign=top;spacingLeft=4;spacingRight=4;overflow=hidden;rotatable=0;points=[[0,0.5],[1,0.5]];portConstraint=eastwest;fontColor=#ffffff;" vertex="1" parent="lUZX4r2CdYcEZuBRouMM-21">
          <mxGeometry y="78" width="140" height="26" as="geometry" />
        </mxCell>
        <mxCell id="lUZX4r2CdYcEZuBRouMM-25" value="" style="endArrow=classic;html=1;exitX=0.007;exitY=0.962;exitDx=0;exitDy=0;exitPerimeter=0;entryX=0.5;entryY=0;entryDx=0;entryDy=0;" edge="1" parent="1" source="lUZX4r2CdYcEZuBRouMM-20" target="lUZX4r2CdYcEZuBRouMM-11">
          <mxGeometry width="50" height="50" relative="1" as="geometry">
            <mxPoint x="334" y="450" as="sourcePoint" />
            <mxPoint x="74" y="510" as="targetPoint" />
          </mxGeometry>
        </mxCell>
        <mxCell id="lUZX4r2CdYcEZuBRouMM-26" value="Воин" style="swimlane;fontStyle=0;childLayout=stackLayout;horizontal=1;startSize=26;horizontalStack=0;resizeParent=1;resizeParentMax=0;resizeLast=0;collapsible=1;marginBottom=0;fillColor=#76608a;strokeColor=#432D57;fontColor=#ffffff;" vertex="1" parent="1">
          <mxGeometry x="294" y="60" width="140" height="104" as="geometry" />
        </mxCell>
        <mxCell id="lUZX4r2CdYcEZuBRouMM-27" value="Класс" style="text;strokeColor=#C73500;fillColor=#fa6800;align=left;verticalAlign=top;spacingLeft=4;spacingRight=4;overflow=hidden;rotatable=0;points=[[0,0.5],[1,0.5]];portConstraint=eastwest;fontColor=#000000;" vertex="1" parent="lUZX4r2CdYcEZuBRouMM-26">
          <mxGeometry y="26" width="140" height="26" as="geometry" />
        </mxCell>
        <mxCell id="lUZX4r2CdYcEZuBRouMM-28" value="Ранг" style="text;strokeColor=#C73500;fillColor=#fa6800;align=left;verticalAlign=top;spacingLeft=4;spacingRight=4;overflow=hidden;rotatable=0;points=[[0,0.5],[1,0.5]];portConstraint=eastwest;fontColor=#000000;" vertex="1" parent="lUZX4r2CdYcEZuBRouMM-26">
          <mxGeometry y="52" width="140" height="26" as="geometry" />
        </mxCell>
        <mxCell id="lUZX4r2CdYcEZuBRouMM-29" value="Заслуги" style="text;strokeColor=#C73500;fillColor=#fa6800;align=left;verticalAlign=top;spacingLeft=4;spacingRight=4;overflow=hidden;rotatable=0;points=[[0,0.5],[1,0.5]];portConstraint=eastwest;fontColor=#000000;" vertex="1" parent="lUZX4r2CdYcEZuBRouMM-26">
          <mxGeometry y="78" width="140" height="26" as="geometry" />
        </mxCell>
        <mxCell id="lUZX4r2CdYcEZuBRouMM-30" value="" style="endArrow=classic;html=1;exitX=0;exitY=1;exitDx=0;exitDy=0;entryX=0.75;entryY=0;entryDx=0;entryDy=0;" edge="1" parent="1" source="lUZX4r2CdYcEZuBRouMM-26" target="lUZX4r2CdYcEZuBRouMM-15">
          <mxGeometry width="50" height="50" relative="1" as="geometry">
            <mxPoint x="334" y="200" as="sourcePoint" />
            <mxPoint x="384" y="150" as="targetPoint" />
          </mxGeometry>
        </mxCell>
        <mxCell id="lUZX4r2CdYcEZuBRouMM-31" value="" style="endArrow=classic;html=1;exitX=0.979;exitY=1;exitDx=0;exitDy=0;exitPerimeter=0;entryX=0;entryY=0;entryDx=0;entryDy=0;" edge="1" parent="1" source="lUZX4r2CdYcEZuBRouMM-29" target="lUZX4r2CdYcEZuBRouMM-21">
          <mxGeometry width="50" height="50" relative="1" as="geometry">
            <mxPoint x="334" y="200" as="sourcePoint" />
            <mxPoint x="384" y="150" as="targetPoint" />
          </mxGeometry>
        </mxCell>
        <mxCell id="lUZX4r2CdYcEZuBRouMM-32" value="Стрелы" style="swimlane;fontStyle=0;childLayout=stackLayout;horizontal=1;startSize=26;horizontalStack=0;resizeParent=1;resizeParentMax=0;resizeLast=0;collapsible=1;marginBottom=0;fillColor=#e3c800;strokeColor=#B09500;fontColor=#000000;" vertex="1" parent="1">
          <mxGeometry x="647" y="490" width="180" height="104" as="geometry" />
        </mxCell>
        <mxCell id="lUZX4r2CdYcEZuBRouMM-33" value="Количество" style="text;strokeColor=#B20000;fillColor=#e51400;align=left;verticalAlign=top;spacingLeft=4;spacingRight=4;overflow=hidden;rotatable=0;points=[[0,0.5],[1,0.5]];portConstraint=eastwest;fontColor=#ffffff;" vertex="1" parent="lUZX4r2CdYcEZuBRouMM-32">
          <mxGeometry y="26" width="180" height="26" as="geometry" />
        </mxCell>
        <mxCell id="lUZX4r2CdYcEZuBRouMM-34" value="Из чего сделаны(материалы)" style="text;strokeColor=#B20000;fillColor=#e51400;align=left;verticalAlign=top;spacingLeft=4;spacingRight=4;overflow=hidden;rotatable=0;points=[[0,0.5],[1,0.5]];portConstraint=eastwest;fontColor=#ffffff;" vertex="1" parent="lUZX4r2CdYcEZuBRouMM-32">
          <mxGeometry y="52" width="180" height="26" as="geometry" />
        </mxCell>
        <mxCell id="lUZX4r2CdYcEZuBRouMM-35" value="Качество" style="text;strokeColor=#B20000;fillColor=#e51400;align=left;verticalAlign=top;spacingLeft=4;spacingRight=4;overflow=hidden;rotatable=0;points=[[0,0.5],[1,0.5]];portConstraint=eastwest;fontColor=#ffffff;" vertex="1" parent="lUZX4r2CdYcEZuBRouMM-32">
          <mxGeometry y="78" width="180" height="26" as="geometry" />
        </mxCell>
        <mxCell id="lUZX4r2CdYcEZuBRouMM-36" value="" style="endArrow=classic;html=1;exitX=0.986;exitY=1.038;exitDx=0;exitDy=0;exitPerimeter=0;" edge="1" parent="1" source="lUZX4r2CdYcEZuBRouMM-24" target="lUZX4r2CdYcEZuBRouMM-32">
          <mxGeometry width="50" height="50" relative="1" as="geometry">
            <mxPoint x="334" y="400" as="sourcePoint" />
            <mxPoint x="384" y="350" as="targetPoint" />
          </mxGeometry>
        </mxCell>
        <mxCell id="lUZX4r2CdYcEZuBRouMM-37" value="Меч" style="swimlane;fontStyle=0;childLayout=stackLayout;horizontal=1;startSize=26;horizontalStack=0;resizeParent=1;resizeParentMax=0;resizeLast=0;collapsible=1;marginBottom=0;fillColor=#e3c800;strokeColor=#B09500;fontColor=#000000;" vertex="1" parent="1">
          <mxGeometry x="340" y="540" width="140" height="104" as="geometry" />
        </mxCell>
        <mxCell id="lUZX4r2CdYcEZuBRouMM-38" value="Длина" style="text;strokeColor=#B20000;fillColor=#e51400;align=left;verticalAlign=top;spacingLeft=4;spacingRight=4;overflow=hidden;rotatable=0;points=[[0,0.5],[1,0.5]];portConstraint=eastwest;fontColor=#ffffff;" vertex="1" parent="lUZX4r2CdYcEZuBRouMM-37">
          <mxGeometry y="26" width="140" height="26" as="geometry" />
        </mxCell>
        <mxCell id="lUZX4r2CdYcEZuBRouMM-39" value="Вес" style="text;strokeColor=#B20000;fillColor=#e51400;align=left;verticalAlign=top;spacingLeft=4;spacingRight=4;overflow=hidden;rotatable=0;points=[[0,0.5],[1,0.5]];portConstraint=eastwest;fontColor=#ffffff;" vertex="1" parent="lUZX4r2CdYcEZuBRouMM-37">
          <mxGeometry y="52" width="140" height="26" as="geometry" />
        </mxCell>
        <mxCell id="lUZX4r2CdYcEZuBRouMM-40" value="Тип" style="text;strokeColor=#B20000;fillColor=#e51400;align=left;verticalAlign=top;spacingLeft=4;spacingRight=4;overflow=hidden;rotatable=0;points=[[0,0.5],[1,0.5]];portConstraint=eastwest;fontColor=#ffffff;" vertex="1" parent="lUZX4r2CdYcEZuBRouMM-37">
          <mxGeometry y="78" width="140" height="26" as="geometry" />
        </mxCell>
        <mxCell id="lUZX4r2CdYcEZuBRouMM-41" value="" style="endArrow=classic;html=1;exitX=1;exitY=0.5;exitDx=0;exitDy=0;entryX=0.5;entryY=0;entryDx=0;entryDy=0;" edge="1" parent="1" source="lUZX4r2CdYcEZuBRouMM-20" target="lUZX4r2CdYcEZuBRouMM-37">
          <mxGeometry width="50" height="50" relative="1" as="geometry">
            <mxPoint x="390" y="620" as="sourcePoint" />
            <mxPoint x="440" y="570" as="targetPoint" />
          </mxGeometry>
        </mxCell>
      </root>
    </mxGraphModel>
  </diagram>
</mxfile>
